# xmcd CD database file
#
# Track frame offsets:
#	150
#	16646
#	31932
#	48384
#
# Disc length: 845 seconds
#
# Revision: 1
# Processed by: cddbd v1.5.1PL0 Copyright (c) Steve Scherf et al.
# Submitted via: CDex 1.51
#
DISCID=21034b04
DTITLE=藤弥美里 - 始まりの風よ吹け
DYEAR=2005
DGENRE=JPop
TTITLE0=始まりの風よ吹け
TTITLE1=I'm in Love
TTITLE2=始まりの風よ吹け(off vocal)
TTITLE3=I'm in Love(off vocal)
EXTD=YEAR: 2005
EXTT0=
EXTT1=
EXTT2=
EXTT3=
PLAYORDER=
